<?xml version="1.0" encoding="utf-8"?><svg version="1.1" id="Layer_1" xmlns="http://www.w3.org/2000/svg" xmlns:xlink="http://www.w3.org/1999/xlink" x="0px" y="0px" viewBox="0 0 111.08 122.88" style="enable-background:new 0 0 111.08 122.88" xml:space="preserve"><style type="text/css">.st0{fill-rule:evenodd;clip-rule:evenodd;}</style><g><path class="st0" d="M11.61,0h33.68c3.2,0,6.12,1.31,8.21,3.4c2.12,2.12,3.4,5.01,3.4,8.21v6.14c0.22-0.26,0.45-0.52,0.69-0.76 c2.12-2.12,5.01-3.4,8.21-3.4h33.68c3.2,0,6.12,1.31,8.21,3.4c2.12,2.12,3.4,5.01,3.4,8.21v86.08c0,3.2-1.31,6.12-3.4,8.21 c-2.12,2.12-5.01,3.4-8.21,3.4H65.79c-3.2,0-6.12-1.31-8.21-3.4c-2.12-2.12-3.4-5.01-3.4-8.21v-6.14 c-0.22,0.26-0.45,0.52-0.69,0.76c-2.12,2.12-5.01,3.4-8.21,3.4H11.61c-3.2,0-6.12-1.31-8.21-3.4c-2.12-2.12-3.4-5.01-3.4-8.21 V11.61c0-3.2,1.31-6.12,3.4-8.21C5.52,1.28,8.41,0,11.61,0L11.61,0z M8.03,58.32l22.3,14.97l-1.88-9.32 c1.17-0.5,2.32-0.93,3.45-1.31c1.21,10.83,10.4,19.25,21.55,19.25c0.25,0,0.49,0,0.74-0.01v9.5H2.6V11.38h51.66v12.49 c-0.05,0.44-0.08,0.88-0.08,1.33v13.34c-0.25-0.01-0.49-0.01-0.74-0.01c-6.41,0-12.16,2.78-16.13,7.19 c-4.04-0.94-8.33-1.02-12.63-0.34l-1.92-9.5L8.03,58.32L8.03,58.32L8.03,58.32L8.03,58.32z M56.89,81.63 c4.34-0.69,8.26-2.68,11.34-5.54c4.7,1.53,9.85,1.82,15,1l1.92,9.5l14.74-22.45l0,0v0l-22.3-14.96l1.88,9.32 c-1.47,0.63-2.91,1.16-4.33,1.59c-0.06-10.75-7.94-19.65-18.25-21.29v-13.2h51.55v79.39H56.78v-5.7c0.07-0.52,0.11-1.05,0.11-1.59 V81.63L56.89,81.63z M55.3,42.97l-0.2-0.02l-0.18-0.02l-0.04,0c-0.08-0.01-0.17-0.01-0.25-0.02l-0.01,0l-0.04,0l-0.04,0l-0.04,0 c-0.1-0.01-0.2-0.01-0.3-0.02c-0.24-0.01-0.49-0.02-0.74-0.02c-4.4,0-8.42,1.65-11.46,4.37c-0.18,0.16-0.36,0.33-0.54,0.5 l-0.04,0.04c-0.1,0.09-0.19,0.19-0.28,0.28l-0.07,0.07c-0.05,0.05-0.09,0.09-0.14,0.14c-0.06,0.06-0.11,0.12-0.17,0.18l-0.12,0.13 c-0.05,0.06-0.11,0.12-0.16,0.18l-0.07,0.08c-0.07,0.09-0.15,0.17-0.22,0.26l-0.05,0.06c-0.08,0.09-0.15,0.19-0.23,0.29l-0.02,0.02 c-0.08,0.1-0.16,0.2-0.23,0.3l-0.01,0.01c-0.08,0.11-0.16,0.22-0.24,0.33l0,0.01c-0.24,0.33-0.46,0.68-0.68,1.03l-0.01,0.02 c-0.21,0.34-0.4,0.69-0.58,1.04l-0.04,0.08c-0.05,0.1-0.1,0.2-0.15,0.3l-0.05,0.1c-0.04,0.08-0.07,0.16-0.11,0.23l-0.08,0.17 c-0.03,0.07-0.06,0.13-0.09,0.2l-0.07,0.16c-0.03,0.08-0.07,0.16-0.1,0.24c-0.03,0.07-0.05,0.13-0.08,0.2l-0.03,0.09 c-0.05,0.13-0.09,0.25-0.14,0.38l-0.01,0.03c-0.32,0.92-0.57,1.88-0.73,2.85l0,0.01c-0.03,0.16-0.05,0.31-0.07,0.47l0,0.02 c-0.03,0.23-0.06,0.47-0.08,0.7l-0.01,0.15c-0.01,0.1-0.02,0.21-0.02,0.31l-0.01,0.16c-0.01,0.09-0.01,0.18-0.01,0.27 c0,0.07-0.01,0.14-0.01,0.21l0,0.17c0,0.1,0,0.19,0,0.29l0,0.18c0,0.08,0,0.16,0,0.23c0,0.08,0,0.16,0.01,0.24l0.01,0.17 c0,0.1,0.01,0.21,0.02,0.31l0.01,0.15l0.02,0.21c0.72,8.85,8.12,15.81,17.16,15.81c0.25,0,0.49-0.01,0.74-0.02v0 c0.65-0.03,1.29-0.09,1.92-0.19l0.04-0.01l0.04-0.01l0.08-0.01l0.04-0.01l0.04-0.01l0.07-0.01l0.01,0l0.04-0.01l0.04-0.01 l0.06-0.01L56.72,77l0.01,0l0.16-0.03l0.01,0c2.44-0.5,4.69-1.51,6.64-2.92h0c0.57-0.41,1.11-0.86,1.63-1.34l0,0 c0.4-0.37,0.78-0.76,1.14-1.17l0,0c2.81-3.16,4.36-7.22,4.36-11.45c0-8.46-6.1-15.5-14.15-16.94l-0.05-0.01 c-0.12-0.02-0.24-0.04-0.36-0.06l-0.08-0.01c-0.11-0.02-0.22-0.03-0.33-0.05L55.57,43C55.48,42.99,55.39,42.98,55.3,42.97 L55.3,42.97z M28.43,95.03c2.62,0,4.78,2.12,4.78,4.78c0,2.62-2.12,4.78-4.78,4.78c-2.62,0-4.78-2.12-4.78-4.78 C23.65,97.18,25.77,95.03,28.43,95.03L28.43,95.03z M60.7,54.8l-4.61,0.73c-0.23-0.58-0.44-0.98-0.62-1.21 c-0.19-0.22-0.49-0.45-0.92-0.68v3.57c2.5,0.67,4.17,1.38,5.02,2.11c1.11,1,1.67,2.26,1.67,3.8c0,0.89-0.2,1.72-0.6,2.47 c-0.4,0.75-0.91,1.38-1.53,1.88c-0.62,0.5-1.28,0.86-1.98,1.09c-0.7,0.23-1.56,0.36-2.57,0.4v2.33h-1.8v-2.33 c-1.21-0.11-2.19-0.3-2.95-0.58c-0.75-0.28-1.4-0.67-1.95-1.18c-0.54-0.5-0.97-1.04-1.27-1.62c-0.3-0.58-0.52-1.28-0.67-2.1 l4.99-0.58c0.15,0.81,0.35,1.4,0.6,1.75c0.25,0.36,0.67,0.68,1.24,0.96v-4.37c-1.67-0.46-2.85-0.86-3.55-1.2 c-0.7-0.34-1.3-0.88-1.81-1.63c-0.51-0.75-0.77-1.65-0.77-2.73c0-1.47,0.51-2.7,1.54-3.68c1.03-0.99,2.56-1.54,4.59-1.64v-1.21h1.8 v1.21c1.85,0.11,3.26,0.55,4.24,1.31C59.76,52.45,60.4,53.48,60.7,54.8L60.7,54.8z M52.75,53.57c-0.53,0.17-0.9,0.39-1.11,0.64 c-0.21,0.25-0.31,0.56-0.31,0.9c0,0.36,0.11,0.67,0.32,0.94c0.21,0.27,0.58,0.49,1.1,0.67V53.57L52.75,53.57z M54.55,65.75 c0.7-0.16,1.21-0.42,1.54-0.78c0.32-0.36,0.49-0.76,0.49-1.21c0-0.39-0.14-0.75-0.41-1.08c-0.27-0.32-0.81-0.63-1.61-0.91V65.75 L54.55,65.75z"/></g></svg>