<?xml version="1.0" standalone="no"?>
<!DOCTYPE svg PUBLIC "-//W3C//DTD SVG 20010904//EN"
 "http://www.w3.org/TR/2001/REC-SVG-20010904/DTD/svg10.dtd">
<svg version="1.0" xmlns="http://www.w3.org/2000/svg"
 width="625.000000pt" height="484.000000pt" viewBox="0 0 625.000000 484.000000"
 preserveAspectRatio="xMidYMid meet">

<g transform="translate(0.000000,484.000000) scale(0.100000,-0.100000)"
fill="#000000" stroke="none">
<path d="M156 3841 c-3 -4 6 -6 19 -3 14 2 25 6 25 8 0 8 -39 4 -44 -5z"/>
<path d="M580 3790 l0 -60 38 2 c36 1 36 1 5 5 -27 4 -33 9 -33 28 0 18 6 25
28 28 l27 4 -27 2 c-21 1 -28 6 -28 20 0 15 8 21 33 24 31 4 31 4 -5 5 l-38 2
0 -60z"/>
<path d="M159 3800 c13 -11 29 -20 37 -20 16 0 19 -36 4 -43 -6 -3 -5 -4 2 -3
7 1 14 12 16 23 2 15 -7 25 -40 41 -40 20 -42 20 -19 2z"/>
<path d="M251 3770 l2 -45 6 40 c5 31 10 40 26 40 16 0 21 -9 26 -40 l6 -40 1
35 c2 46 -8 61 -41 58 -25 -2 -27 -5 -26 -48z"/>
<path d="M350 3799 c-13 -24 0 -69 20 -69 7 0 4 8 -6 18 -17 16 -16 17 22 23
l39 6 -37 2 c-29 1 -36 4 -32 16 7 17 40 20 47 5 3 -6 4 -5 3 2 -5 23 -44 21
-56 -3z"/>
<path d="M470 3813 c8 -3 22 -11 30 -17 13 -10 13 -9 1 7 -7 9 -21 17 -30 16
-13 0 -14 -1 -1 -6z"/>
<path d="M772 3808 c-18 -18 -15 -53 6 -69 15 -13 16 -12 4 3 -18 23 -11 62
12 66 33 7 47 -35 20 -62 -8 -9 -11 -16 -4 -16 6 0 15 11 21 24 21 45 -26 87
-59 54z"/>
<path d="M864 3781 c1 -30 6 -46 16 -49 12 -4 13 -2 3 9 -6 8 -13 30 -16 49
-4 28 -4 26 -3 -9z"/>
<path d="M923 3775 c0 -27 2 -38 4 -22 2 15 2 37 0 50 -2 12 -4 0 -4 -28z"/>
<path d="M961 3770 l2 -45 6 40 c5 31 10 40 26 40 16 0 21 -9 26 -40 l6 -40 1
35 c2 46 -8 61 -41 58 -25 -2 -27 -5 -26 -48z"/>
<path d="M1059 3799 c-12 -24 2 -69 21 -69 7 0 4 7 -4 16 -27 27 -13 69 20 62
23 -4 30 -43 12 -66 -12 -15 -11 -16 5 -3 9 7 17 23 17 35 0 45 -50 63 -71 25z"/>
<path d="M1161 3783 c-1 -23 3 -44 7 -47 4 -2 6 12 4 32 -5 56 -10 62 -11 15z"/>
<path d="M1210 3781 c0 -22 -5 -42 -12 -44 -8 -3 -6 -6 5 -6 14 -1 17 8 17 44
0 25 -2 45 -5 45 -3 0 -5 -18 -5 -39z"/>
<path d="M441 3794 c0 -11 3 -14 6 -6 3 7 2 16 -1 19 -3 4 -6 -2 -5 -13z"/>
<path d="M703 3791 c-23 -19 -32 -38 -13 -26 6 4 20 -4 31 -17 l20 -23 -17 28
c-13 22 -14 30 -4 42 17 20 10 18 -17 -4z"/>
<path d="M443 3756 c1 -11 9 -21 17 -23 10 -3 11 -2 4 4 -6 4 -14 15 -17 23
-5 11 -6 9 -4 -4z"/>
<path d="M152 3744 c10 -10 20 -16 22 -13 3 3 -5 11 -17 18 -21 13 -21 12 -5
-5z"/>
<path d="M2916 3002 c-3 -5 1 -9 9 -9 8 0 12 4 9 9 -3 4 -7 8 -9 8 -2 0 -6 -4
-9 -8z"/>
<path d="M3143 2945 c0 -38 2 -53 4 -32 2 20 2 52 0 70 -2 17 -4 1 -4 -38z"/>
<path d="M2773 2940 c0 -36 2 -50 4 -32 4 28 8 32 34 32 26 0 29 -3 29 -30 0
-16 5 -30 10 -30 6 0 10 27 10 60 0 33 -4 60 -10 60 -5 0 -10 -11 -10 -25 0
-21 -5 -25 -29 -25 -25 0 -30 5 -34 28 -2 15 -4 -2 -4 -38z"/>
<path d="M3232 2943 l-2 -63 38 2 c36 1 36 1 5 5 -31 4 -32 5 -36 61 l-3 57
-2 -62z"/>
<path d="M3461 2938 c1 -35 4 -51 6 -36 3 22 10 27 36 30 25 2 33 8 35 27 4
28 -12 41 -50 41 -28 0 -28 -1 -27 -62z m64 27 c0 -14 -8 -21 -27 -23 -24 -3
-28 0 -28 23 0 23 4 26 28 23 19 -2 27 -9 27 -23z"/>
<path d="M2988 2979 c-7 -20 6 -92 17 -96 8 -2 11 41 6 100 -1 11 -19 8 -23
-4z"/>
<path d="M3762 2973 c-8 -8 -9 -13 -2 -13 5 0 10 -18 10 -40 0 -32 4 -40 18
-39 10 0 12 3 5 6 -15 5 -18 70 -4 75 5 2 4 8 -3 14 -8 8 -15 7 -24 -3z"/>
<path d="M2891 2948 c-13 -36 2 -63 34 -63 32 0 47 27 34 63 -6 15 -17 22 -34
22 -17 0 -28 -7 -34 -22z m54 -23 c0 -23 -4 -30 -20 -30 -21 0 -31 25 -21 51
11 28 41 12 41 -21z"/>
<path d="M3049 2949 c-16 -31 3 -69 36 -69 14 0 25 4 25 9 0 4 -11 6 -25 3
-18 -3 -25 0 -25 12 0 11 9 16 30 16 33 0 35 3 20 31 -14 25 -46 24 -61 -2z
m51 -4 c0 -8 -9 -15 -20 -15 -20 0 -26 11 -13 23 12 13 33 7 33 -8z"/>
<path d="M3320 2944 c-13 -34 3 -64 35 -64 13 0 26 4 29 8 2 4 -7 8 -21 7 -14
0 -28 6 -30 13 -3 8 6 12 26 12 32 0 41 16 19 38 -20 20 -48 14 -58 -14z m58
-1 c2 -8 -6 -13 -22 -13 -25 0 -33 10 -19 24 10 10 36 3 41 -11z"/>
<path d="M3560 2925 c0 -25 5 -45 10 -45 6 0 10 18 10 39 0 29 5 41 18 44 10
3 6 5 -10 6 -27 1 -28 -1 -28 -44z"/>
<path d="M3620 2925 c0 -25 5 -45 10 -45 6 0 10 20 10 45 0 25 -4 45 -10 45
-5 0 -10 -20 -10 -45z"/>
<path d="M3671 2920 l2 -45 6 40 c4 27 12 41 24 43 14 3 17 -4 17 -37 0 -23 5
-41 10 -41 11 0 13 33 4 68 -5 17 -13 22 -35 20 -28 -2 -29 -4 -28 -48z"/>
<path d="M3831 2956 c-21 -25 -10 -70 18 -74 13 -2 27 0 32 5 5 5 -3 9 -18 8
-14 0 -28 6 -30 13 -3 8 6 12 27 12 27 0 31 3 28 23 -4 26 -39 35 -57 13z m47
-13 c2 -8 -6 -13 -22 -13 -25 0 -33 10 -19 24 10 10 36 3 41 -11z"/>
<path d="M3910 2925 c0 -25 5 -45 10 -45 6 0 10 18 10 41 0 33 3 40 18 37 11
-2 19 -16 23 -43 l5 -40 5 40 c3 32 8 40 24 40 16 0 21 -9 26 -40 l7 -40 -2
45 -1 45 -62 2 -63 3 0 -45z"/>
<path d="M4071 2901 c1 -36 4 -56 6 -43 3 15 11 22 29 22 17 0 25 7 30 27 9
34 -7 58 -40 59 -26 1 -26 0 -25 -65z m55 35 c7 -31 -1 -46 -27 -46 -14 0 -19
7 -19 28 0 48 35 61 46 18z"/>
<path d="M4167 2956 c-6 -15 6 -29 36 -39 31 -11 20 -30 -15 -23 -24 5 -29 3
-21 -5 16 -16 57 -7 61 13 2 12 -5 19 -22 24 -14 3 -26 12 -26 20 0 17 22 18
39 2 11 -11 13 -10 9 2 -6 20 -54 25 -61 6z"/>
<path d="M5143 1795 c0 -38 2 -53 4 -32 2 20 2 52 0 70 -2 17 -4 1 -4 -38z"/>
<path d="M5313 1795 c0 -38 2 -60 4 -47 6 28 18 28 37 0 9 -12 16 -18 16 -14
0 5 -7 18 -17 28 -15 17 -15 20 3 41 18 21 17 21 -8 -2 l-27 -23 -4 43 c-2 28
-4 18 -4 -26z"/>
<path d="M4592 1793 l-2 -63 38 2 c36 1 36 1 5 5 -31 4 -32 5 -36 61 l-3 57
-2 -62z"/>
<path d="M5210 1790 l0 -60 38 2 c36 1 36 1 5 5 -27 4 -33 9 -33 28 0 19 6 24
33 28 l32 4 -32 1 c-25 2 -33 7 -33 21 0 15 8 21 33 24 31 4 31 4 -5 5 l-38 2
0 -60z"/>
<path d="M4687 1774 c13 -39 14 -51 3 -68 -11 -19 -11 -19 3 -6 18 18 34 66
19 56 -6 -3 -13 7 -17 24 -4 16 -10 32 -15 35 -5 3 -2 -16 7 -41z"/>
<path d="M4726 1805 c-3 -9 -6 -22 -5 -28 0 -7 5 -1 10 12 5 13 8 26 5 28 -2
2 -6 -3 -10 -12z"/>
<path d="M4772 1808 c-20 -20 -12 -78 11 -78 7 0 7 4 -1 12 -31 31 0 85 33 58
9 -7 15 -8 15 -2 0 9 -22 22 -39 22 -4 0 -12 -5 -19 -12z"/>
<path d="M4862 1808 c-24 -24 -8 -79 23 -78 5 0 2 5 -7 11 -27 15 -21 29 13
29 26 0 30 3 27 23 -3 25 -36 35 -56 15z m48 -13 c0 -9 -9 -15 -25 -15 -24 0
-32 10 -18 23 12 13 43 7 43 -8z"/>
<path d="M4950 1799 c-13 -24 0 -69 20 -69 7 0 4 8 -6 18 -17 16 -16 17 22 23
l39 6 -37 2 c-29 1 -36 4 -32 16 7 17 40 20 47 5 3 -6 4 -5 3 2 -5 23 -44 21
-56 -3z"/>
<path d="M5092 1808 c-20 -20 -12 -78 11 -78 7 0 7 4 -1 12 -20 20 -14 58 11
68 13 5 16 9 7 9 -9 1 -21 -4 -28 -11z"/>
<path d="M5399 1799 c-12 -24 2 -69 21 -69 7 0 4 7 -4 16 -27 27 -13 69 20 62
23 -4 30 -43 12 -66 -12 -15 -11 -16 5 -3 9 7 17 23 17 35 0 45 -50 63 -71 25z"/>
<path d="M5501 1783 c-1 -23 3 -44 7 -47 4 -2 6 12 4 32 -5 56 -10 62 -11 15z"/>
<path d="M5550 1781 c0 -22 -5 -42 -12 -44 -8 -3 -6 -6 5 -6 14 -1 17 8 17 44
0 25 -2 45 -5 45 -3 0 -5 -18 -5 -39z"/>
<path d="M5632 1814 c11 -4 18 -19 21 -45 l4 -39 -1 42 c-1 35 -5 43 -21 45
-15 1 -15 0 -3 -3z"/>
<path d="M5702 1808 c-18 -18 -15 -53 6 -69 15 -13 16 -12 4 3 -18 23 -11 62
12 66 33 7 47 -35 20 -62 -8 -9 -11 -16 -4 -16 6 0 15 11 21 24 21 45 -26 87
-59 54z"/>
<path d="M5794 1781 c1 -30 6 -46 16 -49 12 -4 13 -2 3 9 -6 8 -13 30 -16 49
-4 28 -4 26 -3 -9z"/>
<path d="M5853 1775 c0 -27 2 -38 4 -22 2 15 2 37 0 50 -2 12 -4 0 -4 -28z"/>
<path d="M4810 1740 c-9 -6 -10 -10 -3 -10 6 0 15 5 18 10 8 12 4 12 -15 0z"/>
<path d="M673 875 c0 -38 2 -53 4 -32 2 20 2 52 0 70 -2 17 -4 1 -4 -38z"/>
<path d="M1313 875 c0 -38 2 -53 4 -32 2 20 2 52 0 70 -2 17 -4 1 -4 -38z"/>
<path d="M214 905 c-20 -31 -8 -88 20 -93 16 -3 16 -2 -3 17 -23 23 -26 43
-11 72 13 24 46 25 59 2 6 -10 11 -13 11 -7 0 16 -22 34 -42 34 -10 0 -25 -11
-34 -25z"/>
<path d="M331 886 c-16 -19 -10 -68 9 -73 12 -4 12 -3 2 5 -21 15 -11 67 13
67 24 0 34 -52 13 -67 -10 -8 -10 -9 2 -5 33 8 19 87 -15 87 -7 0 -18 -6 -24
-14z"/>
<path d="M423 855 c0 -27 2 -38 4 -22 2 15 2 37 0 50 -2 12 -4 0 -4 -28z"/>
<path d="M455 891 c13 -5 22 -21 26 -47 l7 -39 -2 45 c-1 40 -4 45 -26 47 -22
2 -23 2 -5 -6z"/>
<path d="M512 894 c11 -4 18 -19 21 -45 l4 -39 -1 42 c-1 35 -5 43 -21 45 -15
1 -15 0 -3 -3z"/>
<path d="M571 836 c1 -34 4 -51 6 -38 3 14 9 20 16 15 7 -4 7 0 -1 10 -20 24
-11 61 15 65 13 2 23 -3 26 -13 4 -12 5 -11 3 2 -1 13 -10 18 -34 19 l-32 1 1
-61z"/>
<path d="M722 888 c-18 -18 -15 -54 6 -69 14 -11 15 -11 5 1 -20 22 -15 30 17
30 18 0 30 5 30 13 0 16 -20 37 -35 37 -6 0 -16 -5 -23 -12z m46 -15 c2 -8 -6
-13 -22 -13 -25 0 -33 10 -19 24 10 10 36 3 41 -11z"/>
<path d="M813 879 c14 -24 14 -29 0 -50 -17 -24 -17 -24 4 -6 21 18 22 18 32
0 6 -10 11 -13 11 -7 0 5 -5 15 -11 21 -8 8 -8 17 0 31 16 29 14 39 -3 16 -15
-19 -15 -19 -31 1 -16 19 -16 19 -2 -6z"/>
<path d="M902 888 c-18 -18 -15 -54 6 -69 14 -11 15 -11 5 1 -20 22 -15 30 17
30 18 0 30 5 30 13 0 16 -20 37 -35 37 -6 0 -16 -5 -23 -12z m46 -15 c2 -8 -6
-13 -22 -13 -25 0 -33 10 -19 24 10 10 36 3 41 -11z"/>
<path d="M1037 893 c-15 -14 -6 -34 19 -43 18 -7 24 -15 20 -26 -3 -8 -2 -12
4 -9 19 12 10 35 -15 41 -34 8 -34 38 0 32 13 -3 22 -1 19 3 -6 11 -38 12 -47
2z"/>
<path d="M1119 879 c-12 -24 2 -69 21 -69 7 0 4 7 -4 16 -29 28 -12 71 23 61
12 -3 19 -1 15 4 -10 17 -43 9 -55 -12z"/>
<path d="M1221 886 c-16 -19 -10 -68 9 -73 12 -4 12 -3 2 5 -21 15 -11 67 13
67 24 0 34 -52 13 -67 -10 -8 -10 -9 2 -5 33 8 19 87 -15 87 -7 0 -18 -6 -24
-14z"/>
<path d="M1388 889 c32 -12 28 -62 -5 -67 -24 -3 -33 21 -13 31 6 3 5 4 -2 3
-7 -2 -13 -11 -13 -22 0 -15 7 -19 33 -20 30 -1 32 1 32 30 0 35 -15 56 -39
55 -10 0 -7 -4 7 -10z"/>
<path d="M1453 855 c0 -27 2 -38 4 -22 2 15 2 37 0 50 -2 12 -4 0 -4 -28z"/>
<path d="M1492 850 c1 -40 2 -41 5 -10 2 19 11 40 20 47 13 10 13 12 -6 10
-18 -1 -21 -7 -19 -47z"/>
<path d="M1561 886 c-15 -18 -10 -69 7 -72 7 -1 8 0 2 3 -22 11 -9 33 20 33
31 0 39 17 18 38 -16 16 -33 15 -47 -2z m47 -13 c2 -8 -6 -13 -22 -13 -25 0
-33 10 -19 24 10 10 36 3 41 -11z"/>
<path d="M630 838 c0 -9 -6 -19 -12 -21 -10 -4 -10 -6 0 -6 14 -1 28 26 18 36
-3 4 -6 -1 -6 -9z"/>
<path d="M270 825 c-11 -13 -10 -14 4 -9 9 3 16 10 16 15 0 13 -6 11 -20 -6z"/>
<path d="M1030 820 c0 -5 5 -10 11 -10 5 0 7 5 4 10 -3 6 -8 10 -11 10 -2 0
-4 -4 -4 -10z"/>
<path d="M316 714 c-4 -9 -4 -19 -1 -22 3 -3 5 1 5 8 0 19 16 1 25 -27 5 -20
3 -23 -19 -23 -20 0 -24 4 -20 18 5 14 4 14 -4 2 -5 -8 -13 -26 -16 -40 -6
-21 -5 -22 4 -7 6 9 23 17 37 17 14 0 32 -8 39 -17 7 -10 4 7 -7 37 -24 65
-34 77 -43 54z"/>
<path d="M951 728 c-1 -12 32 -78 39 -78 8 0 42 71 37 77 -2 2 -10 -10 -17
-27 -16 -38 -23 -38 -43 3 -8 17 -16 29 -16 25z"/>
<path d="M403 655 c0 -27 2 -38 4 -22 2 15 2 37 0 50 -2 12 -4 0 -4 -28z"/>
<path d="M435 691 c13 -5 22 -21 26 -47 l7 -39 -2 45 c-1 40 -4 45 -26 47 -22
2 -23 2 -5 -6z"/>
<path d="M492 694 c11 -4 18 -19 21 -45 l4 -39 -1 42 c-1 35 -5 43 -21 45 -15
1 -15 0 -3 -3z"/>
<path d="M588 689 c32 -12 28 -62 -5 -67 -24 -3 -33 21 -13 31 6 3 5 4 -2 3
-7 -2 -13 -11 -13 -22 0 -15 7 -19 33 -20 30 -1 32 1 32 30 0 35 -15 56 -39
55 -10 0 -7 -4 7 -10z"/>
<path d="M657 693 c-15 -14 -6 -34 19 -43 18 -7 24 -15 20 -26 -3 -8 -2 -12 4
-9 19 12 10 35 -15 41 -34 8 -34 38 0 32 13 -3 22 -1 19 3 -6 11 -38 12 -47 2z"/>
<path d="M743 655 c0 -27 2 -38 4 -22 2 15 2 37 0 50 -2 12 -4 0 -4 -28z"/>
<path d="M786 692 c-3 -5 5 -7 18 -5 19 4 25 0 29 -16 4 -20 5 -19 3 1 -1 24
-38 38 -50 20z"/>
<path d="M1066 692 c-3 -5 5 -7 19 -5 21 5 24 1 28 -36 l4 -41 -1 42 c-1 36
-5 44 -23 46 -11 2 -24 -1 -27 -6z"/>
<path d="M1162 688 c-18 -18 -15 -53 6 -69 15 -13 16 -12 4 3 -18 23 -11 62
12 66 33 7 47 -35 20 -62 -8 -9 -11 -16 -4 -16 6 0 15 11 21 24 21 45 -26 87
-59 54z"/>
<path d="M1254 661 c1 -30 6 -46 16 -49 12 -4 13 -2 3 9 -6 8 -13 30 -16 49
-4 28 -4 26 -3 -9z"/>
<path d="M1313 655 c0 -27 2 -38 4 -22 2 15 2 37 0 50 -2 12 -4 0 -4 -28z"/>
<path d="M1351 650 l2 -45 6 40 c5 31 10 40 26 40 16 0 21 -9 26 -40 l6 -40 1
35 c2 46 -8 61 -41 58 -25 -2 -27 -5 -26 -48z"/>
<path d="M1449 679 c-8 -16 -8 -28 0 -45 10 -23 44 -33 55 -15 3 4 -5 6 -18 4
-40 -8 -47 60 -8 70 15 4 15 5 0 6 -10 0 -22 -9 -29 -20z"/>
<path d="M1552 688 c-24 -24 -8 -79 23 -78 5 0 2 5 -7 11 -27 15 -21 29 13 29
26 0 30 3 27 23 -3 25 -36 35 -56 15z m48 -13 c0 -9 -9 -15 -25 -15 -24 0 -32
10 -18 23 12 13 43 7 43 -8z"/>
<path d="M784 645 c-8 -19 4 -35 24 -34 14 1 14 2 -1 6 -13 3 -17 11 -14 24 6
22 -1 26 -9 4z"/>
<path d="M650 620 c0 -5 5 -10 11 -10 5 0 7 5 4 10 -3 6 -8 10 -11 10 -2 0 -4
-4 -4 -10z"/>
<path d="M830 620 c0 -5 5 -10 11 -10 5 0 7 5 4 10 -3 6 -8 10 -11 10 -2 0 -4
-4 -4 -10z"/>
<path d="M1060 619 c0 -5 9 -9 20 -9 11 0 20 2 20 4 0 2 -9 6 -20 9 -11 3 -20
1 -20 -4z"/>
<path d="M871 604 c0 -11 3 -14 6 -6 3 7 2 16 -1 19 -3 4 -6 -2 -5 -13z"/>
</g>
</svg>
